<svg id="item" xmlns="http://www.w3.org/2000/svg" viewBox="0 0 12219.93 15794"><defs><style>.cls-1{fill:#fff;fill-rule:evenodd;}</style></defs><title>ignitionLogo</title><g id="hot"><path class="cls-1" d="M6247,742.92c-137.9-998.6-323.47-2259.48-1119.69-3312.26-267.55-353.86-532.76-231.19-559.06,212C4511.83-1408.19,4257.15-373.63,3107.77,551c-55.05-54.32,702.56-2013.41,290.34-3551.3S1651.28-6361.42-499.53-7603.79C-884-7826-1129.66-7634.41-1020.17-7203.68c61.13,240.55,96.4,466,108.84,678.15C-757.1-3894.16-4116.16-3301-5250.6-1168.74-5746.38-236.85-5910,807.51-5910,1853.81-5910,5219.64-3215.66,8097,193.51,8097,2337.94,8097,5509,6622.66,6077,3971.16,6469.91,2137,6247,742.92,6247,742.92ZM4060.76,4733.46c-347.74,935.15-2319,1949.35-3839,1996.48-2392.36-100.52-4592.09-2433-4592.09-4930.48,0-1328.1,797.55-3153.46,2429.42-3919.3,401.61-188.31,515.24,9.43,298.1,396.12-396.49,706.14-583,1513-583,2166,0,1140.1,510.93,2825.52,2050.52,3694.24C-69.81,4227,5.58,4227,22.78,4180.37c-314.52-1356.24-74-2287.61,201.12-2846.89,195.15-396.58,547.75-305.19,682.2,117.94,584.73,1840.76,1208,2710.75,1904.36,2747C3325.9,4225.27,4690.27,3040.55,4060.76,4733.46ZM-5206.57-2319.46C-4513.7-2934-3432.4-3840.29-3432.4-3840.29c361.63-453,134.13-1131.78-132.56-1636.89-207.08-392.34-413.95-309.72-506.92,123.62C-4411.84-3770.23-5730.06-1855.19-5206.57-2319.46Z" transform="translate(5909.96 7697)"/></g></svg>